<svg width="330" height="180" viewBox="0 0 330 180" fill="none" xmlns="http://www.w3.org/2000/svg">
<g filter="url(#filter0_d_388_559)">
<g filter="url(#filter1_dd_388_559)">
<rect x="46" y="54" width="217" height="64" rx="32" fill="#115E55"/>
<path d="M95.3991 68.8182H97.527V75.9176C97.527 76.5739 97.3795 77.1439 97.0845 77.6278C96.7929 78.1117 96.3868 78.4846 95.8665 78.7464C95.3461 79.0083 94.7412 79.1392 94.0518 79.1392C93.4387 79.1392 92.8819 79.0315 92.3814 78.8161C91.8842 78.5973 91.4898 78.2659 91.1982 77.8217C90.9065 77.3743 90.7623 76.8125 90.7656 76.1364H92.9084C92.915 76.4048 92.9697 76.6352 93.0724 76.8274C93.1785 77.0163 93.3227 77.1622 93.505 77.2649C93.6906 77.3643 93.9093 77.4141 94.1612 77.4141C94.4264 77.4141 94.6501 77.3577 94.8324 77.245C95.018 77.129 95.1589 76.96 95.255 76.7379C95.3511 76.5159 95.3991 76.2424 95.3991 75.9176V68.8182ZM105.596 68.8182H107.749V75.4304C107.749 76.1728 107.571 76.8224 107.217 77.3793C106.865 77.9361 106.373 78.3703 105.74 78.6818C105.107 78.9901 104.37 79.1442 103.528 79.1442C102.683 79.1442 101.943 78.9901 101.31 78.6818C100.677 78.3703 100.185 77.9361 99.8338 77.3793C99.4825 76.8224 99.3068 76.1728 99.3068 75.4304V68.8182H101.46V75.2464C101.46 75.6342 101.544 75.9789 101.713 76.2805C101.885 76.5821 102.127 76.8191 102.439 76.9915C102.75 77.1638 103.113 77.25 103.528 77.25C103.945 77.25 104.308 77.1638 104.616 76.9915C104.928 76.8191 105.168 76.5821 105.337 76.2805C105.51 75.9789 105.596 75.6342 105.596 75.2464V68.8182ZM111.275 79H108.968L112.483 68.8182H115.257L118.767 79H116.46L113.91 71.1449H113.83L111.275 79ZM111.131 74.9979H116.579V76.6783H111.131V74.9979ZM119.992 79V68.8182H122.145V77.2251H126.51V79H119.992ZM136.699 71.7464C136.66 71.3454 136.489 71.0339 136.187 70.8118C135.886 70.5897 135.476 70.4787 134.959 70.4787C134.608 70.4787 134.311 70.5284 134.069 70.6278C133.827 70.724 133.642 70.8582 133.513 71.0305C133.387 71.2029 133.324 71.3984 133.324 71.6172C133.317 71.7995 133.355 71.9586 133.438 72.0945C133.524 72.2304 133.642 72.348 133.791 72.4474C133.94 72.5436 134.113 72.6281 134.308 72.701C134.504 72.7706 134.712 72.8303 134.934 72.88L135.849 73.0987C136.293 73.1982 136.701 73.3307 137.072 73.4964C137.443 73.6622 137.765 73.866 138.037 74.108C138.309 74.3499 138.519 74.6349 138.668 74.9631C138.821 75.2912 138.898 75.6674 138.902 76.0916C138.898 76.7147 138.739 77.255 138.425 77.7124C138.113 78.1664 137.662 78.5194 137.072 78.7713C136.486 79.0199 135.778 79.1442 134.949 79.1442C134.127 79.1442 133.412 79.0182 132.802 78.7663C132.195 78.5144 131.721 78.1416 131.38 77.6477C131.042 77.1506 130.864 76.5357 130.848 75.8033H132.931C132.954 76.1446 133.052 76.4297 133.224 76.6584C133.4 76.8838 133.634 77.0545 133.925 77.1705C134.22 77.2831 134.553 77.3395 134.925 77.3395C135.289 77.3395 135.606 77.2865 135.874 77.1804C136.146 77.0743 136.356 76.9268 136.506 76.7379C136.655 76.549 136.729 76.3319 136.729 76.0866C136.729 75.858 136.661 75.6657 136.525 75.5099C136.393 75.3542 136.197 75.2216 135.939 75.1122C135.684 75.0028 135.37 74.9034 134.999 74.8139L133.89 74.5355C133.032 74.3267 132.354 74.0002 131.857 73.5561C131.36 73.112 131.113 72.5137 131.116 71.7614C131.113 71.1449 131.277 70.6063 131.608 70.1456C131.943 69.6849 132.402 69.3253 132.986 69.0668C133.569 68.8082 134.232 68.679 134.974 68.679C135.73 68.679 136.39 68.8082 136.953 69.0668C137.52 69.3253 137.961 69.6849 138.275 70.1456C138.59 70.6063 138.753 71.1399 138.763 71.7464H136.699ZM141.872 79H139.566L143.08 68.8182H145.855L149.365 79H147.058L144.507 71.1449H144.428L141.872 79ZM141.728 74.9979H147.177V76.6783H141.728V74.9979ZM150.59 68.8182H153.245L156.049 75.6591H156.168L158.972 68.8182H161.627V79H159.539V72.3729H159.454L156.819 78.9503H155.398L152.763 72.348H152.678V79H150.59V68.8182ZM163.401 79V68.8182H167.418C168.19 68.8182 168.848 68.9657 169.391 69.2607C169.935 69.5523 170.349 69.9583 170.634 70.4787C170.923 70.9957 171.067 71.5923 171.067 72.2685C171.067 72.9446 170.921 73.5412 170.629 74.0582C170.338 74.5753 169.915 74.978 169.362 75.2663C168.811 75.5547 168.145 75.6989 167.363 75.6989H164.803V73.9737H167.015C167.429 73.9737 167.771 73.9025 168.039 73.7599C168.311 73.6141 168.513 73.4136 168.646 73.1584C168.781 72.8999 168.849 72.6032 168.849 72.2685C168.849 71.9304 168.781 71.6354 168.646 71.3835C168.513 71.1283 168.311 70.9311 168.039 70.7919C167.767 70.6494 167.423 70.5781 167.005 70.5781H165.553V79H163.401ZM173.044 79H170.737L174.252 68.8182H177.026L180.536 79H178.23L175.679 71.1449H175.6L173.044 79ZM172.9 74.9979H178.349V76.6783H172.9V74.9979ZM181.762 79V68.8182H183.915V73.0192H188.285V68.8182H190.432V79H188.285V74.794H183.915V79H181.762ZM109.67 95.7464C109.63 95.3454 109.46 95.0339 109.158 94.8118C108.856 94.5897 108.447 94.4787 107.93 94.4787C107.579 94.4787 107.282 94.5284 107.04 94.6278C106.798 94.724 106.613 94.8582 106.483 95.0305C106.357 95.2029 106.294 95.3984 106.294 95.6172C106.288 95.7995 106.326 95.9586 106.409 96.0945C106.495 96.2304 106.613 96.348 106.762 96.4474C106.911 96.5436 107.083 96.6281 107.279 96.701C107.474 96.7706 107.683 96.8303 107.905 96.88L108.82 97.0987C109.264 97.1982 109.672 97.3307 110.043 97.4964C110.414 97.6622 110.736 97.866 111.007 98.108C111.279 98.3499 111.49 98.6349 111.639 98.9631C111.791 99.2912 111.869 99.6674 111.873 100.092C111.869 100.715 111.71 101.255 111.395 101.712C111.084 102.166 110.633 102.519 110.043 102.771C109.456 103.02 108.749 103.144 107.92 103.144C107.098 103.144 106.382 103.018 105.772 102.766C105.166 102.514 104.692 102.142 104.35 101.648C104.012 101.151 103.835 100.536 103.819 99.8033H105.902C105.925 100.145 106.023 100.43 106.195 100.658C106.371 100.884 106.604 101.054 106.896 101.17C107.191 101.283 107.524 101.339 107.895 101.339C108.26 101.339 108.576 101.286 108.845 101.18C109.117 101.074 109.327 100.927 109.476 100.738C109.625 100.549 109.7 100.332 109.7 100.087C109.7 99.858 109.632 99.6657 109.496 99.5099C109.364 99.3542 109.168 99.2216 108.909 99.1122C108.654 99.0028 108.341 98.9034 107.97 98.8139L106.861 98.5355C106.003 98.3267 105.325 98.0002 104.828 97.5561C104.331 97.112 104.084 96.5137 104.087 95.7614C104.084 95.1449 104.248 94.6063 104.579 94.1456C104.914 93.6849 105.373 93.3253 105.956 93.0668C106.54 92.8082 107.203 92.679 107.945 92.679C108.701 92.679 109.36 92.8082 109.924 93.0668C110.49 93.3253 110.931 93.6849 111.246 94.1456C111.561 94.6063 111.723 95.1399 111.733 95.7464H109.67ZM113.32 103V92.8182H120.181V94.593H115.473V97.0192H119.828V98.794H115.473V101.225H120.201V103H113.32ZM121.893 103V92.8182H124.045V97.3075H124.18L127.844 92.8182H130.424L126.646 97.3771L130.469 103H127.893L125.104 98.8139L124.045 100.107V103H121.893ZM133.3 103H130.993L134.508 92.8182H137.282L140.792 103H138.485L135.935 95.1449H135.855L133.3 103ZM133.156 98.9979H138.605V100.678H133.156V98.9979ZM142.018 103V92.8182H146.035C146.804 92.8182 147.46 92.9557 148.004 93.2308C148.55 93.5026 148.966 93.8887 149.251 94.3892C149.54 94.8864 149.684 95.4714 149.684 96.1442C149.684 96.8203 149.538 97.402 149.246 97.8892C148.955 98.3731 148.532 98.7443 147.979 99.0028C147.429 99.2614 146.762 99.3906 145.98 99.3906H143.29V97.6605H145.632C146.043 97.6605 146.384 97.6042 146.656 97.4915C146.928 97.3788 147.13 97.2098 147.263 96.9844C147.399 96.759 147.467 96.4789 147.467 96.1442C147.467 95.8061 147.399 95.5211 147.263 95.2891C147.13 95.0571 146.926 94.8814 146.651 94.7621C146.379 94.6394 146.036 94.5781 145.622 94.5781H144.17V103H142.018ZM147.516 98.3665L150.047 103H147.67L145.195 98.3665H147.516ZM152.96 103H150.653L154.168 92.8182H156.942L160.452 103H158.146L155.595 95.1449H155.516L152.96 103ZM152.816 98.9979H158.265V100.678H152.816V98.9979ZM170.194 92.8182V103H168.335L163.905 96.5916H163.831V103H161.678V92.8182H163.567L167.962 99.2216H168.051V92.8182H170.194ZM178.724 96.1094C178.655 95.8674 178.557 95.6536 178.431 95.468C178.305 95.2791 178.151 95.12 177.969 94.9908C177.79 94.8582 177.584 94.7571 177.352 94.6875C177.123 94.6179 176.87 94.5831 176.591 94.5831C176.071 94.5831 175.614 94.7124 175.219 94.9709C174.828 95.2294 174.523 95.6056 174.305 96.0994C174.086 96.59 173.976 97.1899 173.976 97.8991C173.976 98.6084 174.084 99.2116 174.3 99.7088C174.515 100.206 174.82 100.585 175.214 100.847C175.609 101.106 176.074 101.235 176.611 101.235C177.099 101.235 177.515 101.149 177.859 100.977C178.207 100.801 178.472 100.554 178.655 100.236C178.84 99.9176 178.933 99.5414 178.933 99.1072L179.371 99.1719H176.746V97.5511H181.006V98.8338C181.006 99.7287 180.817 100.498 180.439 101.141C180.062 101.78 179.541 102.274 178.878 102.622C178.215 102.967 177.456 103.139 176.601 103.139C175.647 103.139 174.808 102.929 174.086 102.508C173.363 102.084 172.8 101.482 172.395 100.703C171.994 99.9209 171.794 98.9929 171.794 97.919C171.794 97.0937 171.913 96.358 172.152 95.7116C172.394 95.062 172.732 94.5118 173.166 94.0611C173.6 93.6103 174.106 93.2673 174.682 93.032C175.259 92.7966 175.884 92.679 176.557 92.679C177.133 92.679 177.67 92.7635 178.167 92.9325C178.665 93.0982 179.105 93.3336 179.49 93.6385C179.878 93.9434 180.194 94.3063 180.439 94.7273C180.685 95.1449 180.842 95.6056 180.912 96.1094H178.724Z" fill="#F9FAFB"/>
</g>
<rect x="206.5" y="48.5" width="75" height="75" rx="37.5" fill="white"/>
<rect x="206.5" y="48.5" width="75" height="75" rx="37.5" stroke="#176F64" stroke-width="5"/>
<path d="M223.014 66C221.9 66 221 67.0893 221 68.4375C221 69.7857 221.9 70.875 223.014 70.875H224.021C224.575 70.875 225.028 71.4234 225.028 72.0937V94.0312C225.028 97.398 227.281 100.125 230.063 100.125H231.24C231.126 100.506 231.07 100.917 231.07 101.344C231.07 103.362 232.423 105 234.091 105C235.759 105 237.112 103.362 237.112 101.344C237.112 100.917 237.049 100.506 236.942 100.125H249.372C249.259 100.506 249.202 100.917 249.202 101.344C249.202 103.362 250.555 105 252.223 105C253.891 105 255.244 103.362 255.244 101.344C255.244 100.917 255.181 100.506 255.074 100.125H259.272C260.386 100.125 261.286 99.0357 261.286 97.6875C261.286 96.3393 260.386 95.25 259.272 95.25H230.069C229.515 95.25 229.062 94.7016 229.062 94.0312V72.0937C229.056 68.727 226.803 66 224.021 66H223.014Z" fill="#115E55"/>
<path d="M255.068 75.4138L253.725 77.7403L237.437 68.3266L238.779 66L242.862 68.3534L244.688 67.8559L250.503 71.2179L250.999 73.0603L255.068 75.4138ZM235.771 88.9831V72.8452H242.58L251.886 78.2245V88.9831C251.886 89.6964 251.603 90.3806 251.099 90.885C250.595 91.3894 249.912 91.6728 249.2 91.6728H238.457C237.745 91.6728 237.062 91.3894 236.558 90.885C236.054 90.3806 235.771 89.6964 235.771 88.9831Z" fill="#115E55"/>
</g>
<defs>
<filter id="filter0_d_388_559" x="0" y="0" width="338" height="180" filterUnits="userSpaceOnUse" color-interpolation-filters="sRGB">
<feFlood flood-opacity="0" result="BackgroundImageFix"/>
<feColorMatrix in="SourceAlpha" type="matrix" values="0 0 0 0 0 0 0 0 0 0 0 0 0 0 0 0 0 0 127 0" result="hardAlpha"/>
<feOffset dx="4" dy="4"/>
<feGaussianBlur stdDeviation="25"/>
<feComposite in2="hardAlpha" operator="out"/>
<feColorMatrix type="matrix" values="0 0 0 0 0 0 0 0 0 0 0 0 0 0 0 0 0 0 0.25 0"/>
<feBlend mode="normal" in2="BackgroundImageFix" result="effect1_dropShadow_388_559"/>
<feBlend mode="normal" in="SourceGraphic" in2="effect1_dropShadow_388_559" result="shape"/>
</filter>
<filter id="filter1_dd_388_559" x="42" y="52" width="225" height="72" filterUnits="userSpaceOnUse" color-interpolation-filters="sRGB">
<feFlood flood-opacity="0" result="BackgroundImageFix"/>
<feColorMatrix in="SourceAlpha" type="matrix" values="0 0 0 0 0 0 0 0 0 0 0 0 0 0 0 0 0 0 127 0" result="hardAlpha"/>
<feOffset dy="2"/>
<feGaussianBlur stdDeviation="2"/>
<feColorMatrix type="matrix" values="0 0 0 0 0.203922 0 0 0 0 0.235294 0 0 0 0 0.266667 0 0 0 0.16 0"/>
<feBlend mode="normal" in2="BackgroundImageFix" result="effect1_dropShadow_388_559"/>
<feColorMatrix in="SourceAlpha" type="matrix" values="0 0 0 0 0 0 0 0 0 0 0 0 0 0 0 0 0 0 127 0" result="hardAlpha"/>
<feOffset/>
<feGaussianBlur stdDeviation="0.5"/>
<feColorMatrix type="matrix" values="0 0 0 0 0.458824 0 0 0 0 0.513726 0 0 0 0 0.556863 0 0 0 0.04 0"/>
<feBlend mode="normal" in2="effect1_dropShadow_388_559" result="effect2_dropShadow_388_559"/>
<feBlend mode="normal" in="SourceGraphic" in2="effect2_dropShadow_388_559" result="shape"/>
</filter>
</defs>
</svg>
