<svg width="242" height="80" viewBox="0 0 242 80" fill="none" xmlns="http://www.w3.org/2000/svg">
<g filter="url(#filter0_dd_1_1713)">
<rect x="4" y="8" width="217" height="64" rx="32" fill="#115E55"/>
<path d="M53.3991 22.8182H55.527V29.9176C55.527 30.5739 55.3795 31.1439 55.0845 31.6278C54.7929 32.1117 54.3868 32.4846 53.8665 32.7464C53.3461 33.0083 52.7412 33.1392 52.0518 33.1392C51.4387 33.1392 50.8819 33.0315 50.3814 32.8161C49.8842 32.5973 49.4898 32.2659 49.1982 31.8217C48.9065 31.3743 48.7623 30.8125 48.7656 30.1364H50.9084C50.915 30.4048 50.9697 30.6352 51.0724 30.8274C51.1785 31.0163 51.3227 31.1622 51.505 31.2649C51.6906 31.3643 51.9093 31.4141 52.1612 31.4141C52.4264 31.4141 52.6501 31.3577 52.8324 31.245C53.018 31.129 53.1589 30.96 53.255 30.7379C53.3511 30.5159 53.3991 30.2424 53.3991 29.9176V22.8182ZM63.5959 22.8182H65.7486V29.4304C65.7486 30.1728 65.5713 30.8224 65.2166 31.3793C64.8653 31.9361 64.3731 32.3703 63.7401 32.6818C63.107 32.9901 62.3696 33.1442 61.5277 33.1442C60.6825 33.1442 59.9434 32.9901 59.3104 32.6818C58.6773 32.3703 58.1851 31.9361 57.8338 31.3793C57.4825 30.8224 57.3068 30.1728 57.3068 29.4304V22.8182H59.4595V29.2464C59.4595 29.6342 59.544 29.9789 59.7131 30.2805C59.8854 30.5821 60.1274 30.8191 60.4389 30.9915C60.7505 31.1638 61.1134 31.25 61.5277 31.25C61.9453 31.25 62.3082 31.1638 62.6165 30.9915C62.928 30.8191 63.1683 30.5821 63.3374 30.2805C63.5097 29.9789 63.5959 29.6342 63.5959 29.2464V22.8182ZM69.2747 33H66.9679L70.4828 22.8182H73.2569L76.7669 33H74.46L71.9096 25.1449H71.8301L69.2747 33ZM69.1305 28.9979H74.5794V30.6783H69.1305V28.9979ZM77.9924 33V22.8182H80.1451V31.2251H84.5101V33H77.9924ZM94.6994 25.7464C94.6596 25.3454 94.4889 25.0339 94.1873 24.8118C93.8857 24.5897 93.4764 24.4787 92.9593 24.4787C92.608 24.4787 92.3114 24.5284 92.0694 24.6278C91.8275 24.724 91.6419 24.8582 91.5126 25.0305C91.3867 25.2029 91.3237 25.3984 91.3237 25.6172C91.3171 25.7995 91.3552 25.9586 91.438 26.0945C91.5242 26.2304 91.6419 26.348 91.791 26.4474C91.9402 26.5436 92.1125 26.6281 92.3081 26.701C92.5036 26.7706 92.7124 26.8303 92.9345 26.88L93.8493 27.0987C94.2934 27.1982 94.7011 27.3307 95.0723 27.4964C95.4435 27.6622 95.765 27.866 96.0368 28.108C96.3085 28.3499 96.519 28.6349 96.6681 28.9631C96.8206 29.2912 96.8985 29.6674 96.9018 30.0916C96.8985 30.7147 96.7394 31.255 96.4245 31.7124C96.113 32.1664 95.6622 32.5194 95.0723 32.7713C94.4856 33.0199 93.778 33.1442 92.9494 33.1442C92.1274 33.1442 91.4115 33.0182 90.8017 32.7663C90.1951 32.5144 89.7212 32.1416 89.3798 31.6477C89.0417 31.1506 88.8644 30.5357 88.8478 29.8033H90.9309C90.9541 30.1446 91.0519 30.4297 91.2243 30.6584C91.3999 30.8838 91.6336 31.0545 91.9252 31.1705C92.2202 31.2831 92.5533 31.3395 92.9245 31.3395C93.2891 31.3395 93.6056 31.2865 93.8741 31.1804C94.1459 31.0743 94.3564 30.9268 94.5055 30.7379C94.6547 30.549 94.7292 30.3319 94.7292 30.0866C94.7292 29.858 94.6613 29.6657 94.5254 29.5099C94.3928 29.3542 94.1973 29.2216 93.9387 29.1122C93.6835 29.0028 93.3703 28.9034 92.9991 28.8139L91.8904 28.5355C91.032 28.3267 90.3542 28.0002 89.8571 27.5561C89.3599 27.112 89.113 26.5137 89.1163 25.7614C89.113 25.1449 89.277 24.6063 89.6085 24.1456C89.9432 23.6849 90.4023 23.3253 90.9856 23.0668C91.569 22.8082 92.2318 22.679 92.9743 22.679C93.7299 22.679 94.3895 22.8082 94.9529 23.0668C95.5197 23.3253 95.9605 23.6849 96.2754 24.1456C96.5903 24.6063 96.7527 25.1399 96.7626 25.7464H94.6994ZM99.8723 33H97.5655L101.08 22.8182H103.855L107.365 33H105.058L102.507 25.1449H102.428L99.8723 33ZM99.7282 28.9979H105.177V30.6783H99.7282V28.9979ZM108.59 22.8182H111.245L114.049 29.6591H114.168L116.972 22.8182H119.627V33H117.539V26.3729H117.454L114.819 32.9503H113.398L110.763 26.348H110.678V33H108.59V22.8182ZM121.401 33V22.8182H125.418C126.19 22.8182 126.848 22.9657 127.391 23.2607C127.935 23.5523 128.349 23.9583 128.634 24.4787C128.923 24.9957 129.067 25.5923 129.067 26.2685C129.067 26.9446 128.921 27.5412 128.629 28.0582C128.338 28.5753 127.915 28.978 127.362 29.2663C126.811 29.5547 126.145 29.6989 125.363 29.6989H122.803V27.9737H125.015C125.429 27.9737 125.771 27.9025 126.039 27.7599C126.311 27.6141 126.513 27.4136 126.646 27.1584C126.781 26.8999 126.849 26.6032 126.849 26.2685C126.849 25.9304 126.781 25.6354 126.646 25.3835C126.513 25.1283 126.311 24.9311 126.039 24.7919C125.767 24.6494 125.423 24.5781 125.005 24.5781H123.553V33H121.401ZM131.044 33H128.737L132.252 22.8182H135.026L138.536 33H136.23L133.679 25.1449H133.6L131.044 33ZM130.9 28.9979H136.349V30.6783H130.9V28.9979ZM139.762 33V22.8182H141.915V27.0192H146.285V22.8182H148.432V33H146.285V28.794H141.915V33H139.762ZM67.6701 49.7464C67.6303 49.3454 67.4596 49.0339 67.158 48.8118C66.8564 48.5897 66.4471 48.4787 65.93 48.4787C65.5787 48.4787 65.2821 48.5284 65.0401 48.6278C64.7982 48.724 64.6126 48.8582 64.4833 49.0305C64.3574 49.2029 64.2944 49.3984 64.2944 49.6172C64.2878 49.7995 64.3259 49.9586 64.4087 50.0945C64.4949 50.2304 64.6126 50.348 64.7617 50.4474C64.9109 50.5436 65.0832 50.6281 65.2788 50.701C65.4743 50.7706 65.6831 50.8303 65.9052 50.88L66.82 51.0987C67.2641 51.1982 67.6718 51.3307 68.043 51.4964C68.4142 51.6622 68.7357 51.866 69.0075 52.108C69.2792 52.3499 69.4897 52.6349 69.6388 52.9631C69.7913 53.2912 69.8692 53.6674 69.8725 54.0916C69.8692 54.7147 69.7101 55.255 69.3952 55.7124C69.0837 56.1664 68.6329 56.5194 68.043 56.7713C67.4563 57.0199 66.7487 57.1442 65.9201 57.1442C65.0981 57.1442 64.3822 57.0182 63.7724 56.7663C63.1658 56.5144 62.6919 56.1416 62.3505 55.6477C62.0124 55.1506 61.8351 54.5357 61.8185 53.8033H63.9016C63.9248 54.1446 64.0226 54.4297 64.195 54.6584C64.3706 54.8838 64.6043 55.0545 64.896 55.1705C65.1909 55.2831 65.524 55.3395 65.8952 55.3395C66.2598 55.3395 66.5763 55.2865 66.8448 55.1804C67.1166 55.0743 67.3271 54.9268 67.4762 54.7379C67.6254 54.549 67.6999 54.3319 67.6999 54.0866C67.6999 53.858 67.632 53.6657 67.4961 53.5099C67.3635 53.3542 67.168 53.2216 66.9094 53.1122C66.6542 53.0028 66.341 52.9034 65.9698 52.8139L64.8612 52.5355C64.0027 52.3267 63.3249 52.0002 62.8278 51.5561C62.3306 51.112 62.0837 50.5137 62.087 49.7614C62.0837 49.1449 62.2478 48.6063 62.5792 48.1456C62.9139 47.6849 63.373 47.3253 63.9563 47.0668C64.5397 46.8082 65.2025 46.679 65.945 46.679C66.7006 46.679 67.3602 46.8082 67.9237 47.0668C68.4904 47.3253 68.9312 47.6849 69.2461 48.1456C69.561 48.6063 69.7234 49.1399 69.7333 49.7464H67.6701ZM71.3205 57V46.8182H78.1813V48.593H73.4732V51.0192H77.8283V52.794H73.4732V55.2251H78.2012V57H71.3205ZM79.8928 57V46.8182H82.0455V51.3075H82.1797L85.8438 46.8182H88.424L84.6456 51.3771L88.4688 57H85.8935L83.1044 52.8139L82.0455 54.1065V57H79.8928ZM91.3001 57H88.9933L92.5082 46.8182H95.2823L98.7923 57H96.4854L93.935 49.1449H93.8555L91.3001 57ZM91.1559 52.9979H96.6048V54.6783H91.1559V52.9979ZM100.018 57V46.8182H104.035C104.804 46.8182 105.46 46.9557 106.004 47.2308C106.55 47.5026 106.966 47.8887 107.251 48.3892C107.54 48.8864 107.684 49.4714 107.684 50.1442C107.684 50.8203 107.538 51.402 107.246 51.8892C106.955 52.3731 106.532 52.7443 105.979 53.0028C105.429 53.2614 104.762 53.3906 103.98 53.3906H101.29V51.6605H103.632C104.043 51.6605 104.384 51.6042 104.656 51.4915C104.928 51.3788 105.13 51.2098 105.263 50.9844C105.399 50.759 105.467 50.4789 105.467 50.1442C105.467 49.8061 105.399 49.5211 105.263 49.2891C105.13 49.0571 104.926 48.8814 104.651 48.7621C104.379 48.6394 104.036 48.5781 103.622 48.5781H102.17V57H100.018ZM105.516 52.3665L108.047 57H105.67L103.195 52.3665H105.516ZM110.96 57H108.653L112.168 46.8182H114.942L118.452 57H116.146L113.595 49.1449H113.516L110.96 57ZM110.816 52.9979H116.265V54.6783H110.816V52.9979ZM128.194 46.8182V57H126.335L121.905 50.5916H121.831V57H119.678V46.8182H121.567L125.962 53.2216H126.051V46.8182H128.194ZM136.724 50.1094C136.655 49.8674 136.557 49.6536 136.431 49.468C136.305 49.2791 136.151 49.12 135.969 48.9908C135.79 48.8582 135.584 48.7571 135.352 48.6875C135.123 48.6179 134.87 48.5831 134.591 48.5831C134.071 48.5831 133.614 48.7124 133.219 48.9709C132.828 49.2294 132.523 49.6056 132.305 50.0994C132.086 50.59 131.976 51.1899 131.976 51.8991C131.976 52.6084 132.084 53.2116 132.3 53.7088C132.515 54.206 132.82 54.5855 133.214 54.8473C133.609 55.1058 134.074 55.2351 134.611 55.2351C135.099 55.2351 135.515 55.1489 135.859 54.9766C136.207 54.8009 136.472 54.554 136.655 54.2358C136.84 53.9176 136.933 53.5414 136.933 53.1072L137.371 53.1719H134.746V51.5511H139.006V52.8338C139.006 53.7287 138.817 54.4976 138.439 55.1406C138.062 55.7803 137.541 56.2741 136.878 56.6222C136.215 56.9669 135.456 57.1392 134.601 57.1392C133.647 57.1392 132.808 56.9287 132.086 56.5078C131.363 56.0836 130.8 55.482 130.395 54.7031C129.994 53.9209 129.794 52.9929 129.794 51.919C129.794 51.0937 129.913 50.358 130.152 49.7116C130.394 49.062 130.732 48.5118 131.166 48.0611C131.6 47.6103 132.106 47.2673 132.682 47.032C133.259 46.7966 133.884 46.679 134.557 46.679C135.133 46.679 135.67 46.7635 136.167 46.9325C136.665 47.0982 137.105 47.3336 137.49 47.6385C137.878 47.9434 138.194 48.3063 138.439 48.7273C138.685 49.1449 138.842 49.6056 138.912 50.1094H136.724Z" fill="#F9FAFB"/>
</g>
<rect x="164.5" y="2.5" width="75" height="75" rx="37.5" fill="white"/>
<rect x="164.5" y="2.5" width="75" height="75" rx="37.5" stroke="#176F64" stroke-width="5"/>
<path d="M181.014 20C179.9 20 179 21.0893 179 22.4375C179 23.7857 179.9 24.875 181.014 24.875H182.021C182.575 24.875 183.028 25.4234 183.028 26.0937V48.0312C183.028 51.398 185.281 54.125 188.063 54.125H189.24C189.126 54.5059 189.07 54.9172 189.07 55.3437C189.07 57.3623 190.423 59 192.091 59C193.759 59 195.112 57.3623 195.112 55.3437C195.112 54.9172 195.049 54.5059 194.942 54.125H207.372C207.259 54.5059 207.202 54.9172 207.202 55.3437C207.202 57.3623 208.555 59 210.223 59C211.891 59 213.244 57.3623 213.244 55.3437C213.244 54.9172 213.181 54.5059 213.074 54.125H217.272C218.386 54.125 219.286 53.0357 219.286 51.6875C219.286 50.3393 218.386 49.25 217.272 49.25H188.069C187.515 49.25 187.062 48.7016 187.062 48.0312V26.0937C187.056 22.727 184.803 20 182.021 20H181.014Z" fill="#115E55"/>
<path d="M213.068 29.4138L211.725 31.7403L195.437 22.3266L196.779 20L200.862 22.3534L202.688 21.8559L208.503 25.2179L208.999 27.0603L213.068 29.4138ZM193.771 42.9831V26.8452H200.58L209.886 32.2245V42.9831C209.886 43.6964 209.603 44.3806 209.099 44.885C208.595 45.3894 207.912 45.6728 207.2 45.6728H196.457C195.745 45.6728 195.062 45.3894 194.558 44.885C194.054 44.3806 193.771 43.6964 193.771 42.9831Z" fill="#115E55"/>
<defs>
<filter id="filter0_dd_1_1713" x="0" y="6" width="225" height="72" filterUnits="userSpaceOnUse" color-interpolation-filters="sRGB">
<feFlood flood-opacity="0" result="BackgroundImageFix"/>
<feColorMatrix in="SourceAlpha" type="matrix" values="0 0 0 0 0 0 0 0 0 0 0 0 0 0 0 0 0 0 127 0" result="hardAlpha"/>
<feOffset dy="2"/>
<feGaussianBlur stdDeviation="2"/>
<feColorMatrix type="matrix" values="0 0 0 0 0.203922 0 0 0 0 0.235294 0 0 0 0 0.266667 0 0 0 0.16 0"/>
<feBlend mode="normal" in2="BackgroundImageFix" result="effect1_dropShadow_1_1713"/>
<feColorMatrix in="SourceAlpha" type="matrix" values="0 0 0 0 0 0 0 0 0 0 0 0 0 0 0 0 0 0 127 0" result="hardAlpha"/>
<feOffset/>
<feGaussianBlur stdDeviation="0.5"/>
<feColorMatrix type="matrix" values="0 0 0 0 0.458824 0 0 0 0 0.513726 0 0 0 0 0.556863 0 0 0 0.04 0"/>
<feBlend mode="normal" in2="effect1_dropShadow_1_1713" result="effect2_dropShadow_1_1713"/>
<feBlend mode="normal" in="SourceGraphic" in2="effect2_dropShadow_1_1713" result="shape"/>
</filter>
</defs>
</svg>
